<svg width="300" height="116" viewBox="0 0 300 116" fill="none" xmlns="http://www.w3.org/2000/svg">
<path d="M122.977 32.8336H106.77L88.6345 54.3221V32.8336H74.3554V82.6568H88.6345V74.3296L95.9836 65.4716L107.524 82.6568H124.765L105.289 54.2383L122.977 32.8336Z" fill="#FF3300"/>
<path d="M127.588 45.1008H135.999V70.3896H127.588V82.6568H158.745V70.3896H150.362V45.1008H158.745V32.8336H127.588V45.1008Z" fill="#FF3300"/>
<path d="M200.883 59.3799L177.998 32.8336H166.233V82.6568H180.513V57.0047L203.426 82.6568H215.246V32.8336H200.883V59.3799Z" fill="#FF3300"/>
<path d="M247.493 52.897V64.6612H260.291C258.251 68.8248 254.591 70.9205 249.281 70.9205C245.565 70.9205 242.491 69.6631 240.06 67.1761C237.629 64.6612 236.427 61.5315 236.427 57.7592C236.427 53.9868 237.629 50.8571 240.004 48.3422C242.379 45.8273 245.397 44.5978 249.086 44.5978C253.892 44.5978 257.301 46.498 259.285 50.3262L273.788 46.6936C272.139 41.9711 269.093 38.3105 264.65 35.6839C260.179 33.0572 255.01 31.7438 249.114 31.7438C241.513 31.7438 235.114 34.2587 229.889 39.2886C224.663 44.3184 222.037 50.4939 222.037 57.7871C222.037 65.0804 224.663 71.2279 229.889 76.2577C235.114 81.2876 241.541 83.8025 249.198 83.8025C256.938 83.8025 263.281 81.3714 268.199 76.5372C273.145 71.703 275.604 65.4716 275.604 57.843C275.604 57.2562 275.492 55.6075 275.297 52.925H247.493V52.897Z" fill="#FF3300"/>
<path d="M297.038 65.723L298.24 35.0131V32.5262H281.306V35.0131L282.507 65.723H297.038Z" fill="white"/>
<path d="M294.467 77.571C292.763 75.7826 291.254 73.9104 289.773 71.8985C286.895 75.8944 283.513 79.4712 279.545 82.7406C283.541 86.0099 286.895 89.5867 289.773 93.5826C292.651 89.5867 296.06 86.0099 300 82.7406C298.016 81.0919 296.172 79.3873 294.467 77.571Z" fill="white"/>
<path d="M39.3422 69.3278C39.4539 69.3557 39.5657 69.3836 39.6775 69.4116C40.7393 69.7748 41.5776 70.4455 42.2762 71.2558C43.3101 72.4854 44.344 73.7149 45.3779 74.9164C45.6853 75.2797 46.0206 75.643 46.3839 75.9224C48.4517 77.4314 50.268 79.1918 51.9167 81.1199C52.0844 81.3155 52.252 81.4552 52.5035 81.7067C53.0903 80.1977 53.4815 78.7726 53.761 77.2916C54.0404 75.8106 54.264 74.3017 54.5155 72.7089C55.2699 73.6031 55.0743 74.637 55.4376 75.5312C56.3597 72.6251 56.3038 69.6072 56.4994 66.5893C56.4436 66.6172 56.4156 66.6172 56.3877 66.6452C56.3318 66.7011 56.3038 66.7849 56.2479 66.8687C55.3538 68.9365 53.7051 70.194 51.5255 70.7808C49.3459 71.3676 47.1384 71.5632 44.9029 71.172C42.5277 70.7529 40.6276 69.6351 39.3422 67.6232C39.0627 67.204 38.8392 66.757 38.5877 66.3099C38.5039 66.1701 38.3641 66.0304 38.1685 65.7789C37.9729 66.8687 38.42 67.707 38.6156 68.6571C38.1127 68.21 38.0288 68.1541 37.8332 67.6232C37.5258 66.8128 37.2185 66.0025 36.967 65.1921C36.5758 63.7949 36.2404 62.3978 35.8772 61.0006C35.7654 60.5815 35.6536 60.2182 35.2345 59.9667C34.0329 59.324 32.7196 59.8829 32.3842 61.1683C31.993 62.6772 31.6018 64.1862 31.1547 65.6672C30.9591 66.3378 30.6518 66.9526 30.3723 67.5953C30.2605 67.8188 30.1488 68.0982 29.7296 68.1821C29.8134 67.7909 29.9252 67.4555 29.9811 67.0923C30.037 66.729 30.2047 66.3657 29.9252 65.9187C29.7296 66.226 29.6178 66.4496 29.4781 66.6452C29.3664 66.8687 29.2266 67.0923 29.1149 67.2879C27.8015 69.4395 25.8734 70.7529 23.3026 71.172C21.2348 71.5073 19.1949 71.3117 17.183 70.8926C14.6122 70.3337 12.7959 68.9365 11.9855 66.4496C11.9576 66.3657 11.9017 66.2819 11.8458 66.1981C12.0694 69.4116 12.0694 72.6251 13.0753 75.7268C13.2989 74.7208 13.1033 73.659 13.8577 72.653C14.1372 74.3017 14.3607 75.7827 14.6402 77.2637C14.9475 78.7447 15.3667 80.1977 15.9814 81.7067C16.205 81.4552 16.3726 81.3155 16.5124 81.1478C18.1051 79.1638 19.8656 77.3755 21.9334 75.8386C22.2408 75.615 22.5202 75.3076 22.7717 75.0003C23.8335 73.7708 24.8675 72.5133 25.9573 71.2838C26.3764 70.8367 26.8514 70.4175 27.3265 70.0543C27.7736 69.719 28.2486 69.4395 28.8913 69.2998C28.8075 69.691 28.4722 69.7748 28.2766 69.9425C27.3265 70.7529 26.7956 71.7029 26.9912 72.9604C27.047 73.4075 27.2147 73.8266 27.6897 73.9943C27.7736 73.9384 27.8574 73.8825 27.9133 73.8266C28.9472 72.7927 30.4003 72.7369 31.4901 73.7149C31.6577 73.8546 31.8533 73.9943 32.021 74.134C31.7974 73.6031 31.3224 73.2678 31.2386 72.5692C31.5459 72.8486 31.7415 73.0442 31.9651 73.2119C32.9152 73.9664 33.977 74.1061 35.0948 73.6031C35.7654 73.2957 36.2684 72.8486 36.7155 72.2898C36.8552 72.1221 36.9949 72.0103 37.2185 71.7868C37.3302 72.2898 37.3861 72.653 37.4699 73.0163C38.0568 73.0442 38.5877 72.9604 39.0627 73.1001C39.5378 73.2678 39.9569 73.631 40.4878 73.9384C41.0747 73.6031 41.1585 72.9883 41.1864 72.3456C41.2144 70.8646 40.432 69.9146 39.1466 69.216C39.2304 69.3278 39.2863 69.2998 39.3422 69.3278Z" fill="white"/>
<path d="M58.1482 90.3411C56.8348 94.5606 54.5994 98.3329 51.8888 101.826C51.7491 102.021 51.5535 102.161 51.3859 102.329C51.33 102.301 51.2741 102.301 51.1903 102.273C51.4976 100.596 51.6653 98.8918 51.4976 97.0196C51.302 97.3829 51.1903 97.6064 51.0785 97.802C50.6034 98.78 50.1284 99.7581 49.6254 100.736C48.1165 103.586 46.2722 106.213 44.0367 108.588C43.7573 108.896 43.5337 109.259 42.9469 109.399C43.1425 108.421 43.3102 107.526 43.4779 106.632C43.6455 105.766 43.7852 104.9 43.9529 104.033C41.9969 107.247 40.2085 109.427 38.8672 110.013C39.0069 108.728 39.3422 107.47 39.0349 106.045C38.8113 106.409 38.6716 106.632 38.5598 106.884C37.5538 108.784 36.3243 110.572 34.9551 112.249C34.7595 112.5 34.508 112.724 34.2286 113.031C33.7256 112.444 33.2785 111.941 32.8594 111.41C32.4402 110.88 32.049 110.349 31.6578 109.79C31.2666 109.203 30.9033 108.616 30.54 108.029C30.1768 107.47 30.0091 106.828 29.4503 106.269C29.087 107.61 29.562 108.812 29.562 110.069C29.4223 110.041 29.3105 110.041 29.2546 109.985C29.0311 109.818 28.8076 109.65 28.6119 109.454C27.103 108.029 25.8735 106.409 24.9514 104.564C24.8396 104.369 24.7278 104.173 24.616 103.978C24.5881 104.005 24.5322 104.005 24.5043 104.033C24.8116 105.738 25.147 107.443 25.4543 109.147C25.3705 109.175 25.2867 109.203 25.2028 109.231C24.9234 108.951 24.616 108.644 24.3366 108.337C21.5702 105.291 19.4186 101.882 17.714 98.1653C17.5743 97.8579 17.4905 97.4946 17.0992 97.1314C17.0992 98.1094 17.0992 98.9198 17.0992 99.7581C17.0713 100.596 17.4066 101.435 17.2669 102.441C16.9875 102.133 16.7639 101.966 16.6242 101.742C15.8418 100.68 15.0314 99.6183 14.3328 98.5286C12.5445 95.7901 11.0076 92.9678 10.1413 89.8102C9.88984 88.944 9.13537 88.8322 8.35295 88.413C8.40884 89.2234 8.46473 89.894 8.52061 90.5647C8.68827 92.2133 9.05154 93.8061 9.8619 95.2592C9.94573 95.4268 10.0854 95.5666 10.2531 95.7901C10.5046 95.1195 10.309 94.4488 10.8399 93.8341C11.0076 94.2532 11.1473 94.5885 11.2591 94.9239C11.9577 96.824 12.768 98.6962 13.8578 100.429C14.8638 102.021 15.9815 103.53 17.4625 104.732C17.7419 104.956 17.9655 105.235 18.4405 105.291C18.4405 104.369 18.0773 103.53 18.3567 102.636C18.72 102.748 18.7759 103.055 18.9435 103.279C19.7539 104.453 20.5084 105.654 21.3467 106.828C22.4085 108.281 23.638 109.594 24.9793 110.796C25.4823 111.243 26.0132 111.634 26.7118 111.997C26.7118 111.047 26.3206 110.237 26.5162 109.259C26.7956 109.566 26.9912 109.762 27.1589 109.957C28.109 111.047 29.1429 112.053 30.3165 112.891C30.4842 113.003 30.6798 113.087 30.9871 113.227C30.9313 112.64 30.9033 112.193 30.8754 111.746C30.9313 111.718 30.9871 111.69 31.043 111.662C32.1049 112.891 33.055 114.233 34.3404 115.434C34.7874 114.931 35.1787 114.512 35.5419 114.065C35.9052 113.646 36.2405 113.199 36.6038 112.752C36.967 112.305 37.2185 111.774 37.7774 111.355C37.9171 112.081 37.6097 112.64 37.7495 113.394C38.5878 112.668 39.3143 112.053 40.0129 111.383C40.6835 110.712 41.2983 110.013 42.0248 109.231C42.2204 110.237 41.7733 111.075 41.8851 112.025C42.1925 111.83 42.4719 111.718 42.6675 111.522C43.5337 110.796 44.4279 110.097 45.2104 109.287C46.9708 107.498 48.4238 105.459 49.6813 103.307C49.821 103.055 49.8769 102.72 50.2681 102.636C50.4637 103.53 50.2122 104.369 50.1843 105.263C50.6593 105.207 50.9388 104.9 51.2182 104.648C52.7271 103.391 53.8728 101.826 54.8788 100.177C55.8848 98.5006 56.6392 96.6843 57.2819 94.84C57.3937 94.5047 57.4775 94.1135 57.8687 93.6943C58.0084 94.4209 58.1202 95.0356 58.2599 95.6783C59.4336 94.1973 60.4116 89.922 59.9086 88.6086C58.9865 88.9719 58.4276 89.419 58.1482 90.3411Z" fill="white"/>
<path d="M52.9228 85.6186C52.4198 85.3672 52.0565 85.0318 51.7212 84.5847C50.6034 82.9081 49.4019 81.2874 48.0047 79.8064C46.2163 77.9342 44.2603 76.3135 41.6057 75.6987C41.6336 75.6428 41.6615 75.559 41.6895 75.559C42.2484 75.5031 42.7793 75.4472 43.5058 75.3634C43.1984 75.2237 43.0308 75.1119 42.8631 75.056C41.1865 74.5251 38.6436 75.1957 37.5259 76.5091C37.1626 76.9282 36.9112 77.4592 36.7435 77.9621C36.492 78.8284 36.8273 79.4711 37.6377 79.8902C37.9171 80.03 38.1966 80.1417 38.5039 80.2535C40.0967 80.7844 41.913 81.7345 43.1146 82.9081C44.2323 84.0259 45.0706 85.423 46.1884 86.5128C48.34 88.6365 50.9108 89.5587 53.9846 88.9439C54.5155 88.8321 55.0464 88.7483 55.6891 88.6365C55.4935 88.9439 55.3538 89.1395 55.2421 89.3351C57.1981 89.3351 59.7968 88.1336 60.8587 86.6526C60.5793 86.6805 60.4116 86.6805 60.2439 86.6805C57.6731 87.1555 55.2141 86.8202 52.9228 85.6186Z" fill="white"/>
<path d="M12.7402 88.6924C13.1872 88.7763 13.4946 88.8322 13.802 88.8881C15.1433 89.1675 16.5125 89.3072 17.8817 89.0278C19.6981 88.6645 21.1791 87.7703 22.3806 86.457C23.1631 85.6187 23.8616 84.6965 24.5882 83.8023C25.8456 82.2655 27.4384 81.008 29.3665 80.4212C29.7577 80.3094 30.121 80.1697 30.4842 80.002C31.4343 79.5829 31.7696 78.9122 31.5181 77.9063C31.2946 77.0121 30.7916 76.3414 30.0092 75.8664C29.0591 75.2516 27.9973 74.9443 26.8516 74.9163C26.1809 74.8884 25.5103 75.0002 24.8117 75.4193C25.5103 75.587 26.153 75.3355 26.8516 75.7546C24.9794 76.0341 23.5822 76.9283 22.3248 77.9622C21.3467 78.7725 20.4246 79.6667 19.6142 80.6168C18.5524 81.9022 17.6303 83.2714 16.6802 84.6127C16.3728 85.0319 16.0375 85.3672 15.5624 85.6187C13.2431 86.8202 10.8121 87.1556 8.24126 86.7364C7.98977 86.7085 7.76622 86.6805 7.31912 86.6246C9.05162 88.2454 10.8679 89.2234 13.1872 89.419C13.0755 89.1954 12.9637 89.0278 12.7402 88.6924Z" fill="white"/>
<path d="M39.5101 85.1996C39.063 85.2834 38.6159 85.3672 38.1967 85.5349C37.7776 85.7026 37.7496 85.8702 37.9732 86.2335C38.6438 87.3233 40.1528 88.0219 41.4381 87.7704C42.2206 87.6307 42.7794 87.1836 43.0309 86.4291C43.1986 85.8702 43.1427 85.6467 42.6677 85.2834C41.9132 84.6966 41.1308 84.1377 40.3484 83.5509C39.6218 82.9921 38.7556 82.6847 37.8334 82.545C35.6539 82.2096 33.4463 82.2655 31.2388 82.4332C30.0652 82.517 28.9195 82.7965 27.9694 83.5509C27.2429 84.1098 26.5164 84.6407 25.7898 85.1996C25.2589 85.6187 25.1471 85.982 25.3986 86.5968C25.6501 87.2115 26.0972 87.6027 26.7399 87.7983C28.193 88.2454 30.0372 87.2953 30.5402 85.8423C29.8416 85.2275 28.9195 85.3393 27.9415 85.1716C28.193 85.004 28.3047 84.8922 28.4444 84.8084C29.3945 84.3892 30.3725 84.3054 31.3785 84.5848C33.2507 85.0878 35.095 85.0599 36.9672 84.5848C37.2187 84.5289 37.4702 84.4731 37.7217 84.4451C38.6159 84.3892 39.4542 84.5848 40.2086 85.0319C40.2086 85.0878 40.1807 85.1716 40.1807 85.2275C39.9571 85.1716 39.7336 85.1716 39.5101 85.1996Z" fill="white"/>
<path d="M57.7571 71.5073C57.8409 74.7767 58.9028 77.7387 60.9147 80.561C59.8808 80.3933 59.3219 79.7506 58.4836 79.2197C58.6233 80.1698 58.7351 80.9243 58.8189 81.7067C58.9027 82.4611 58.9866 83.1877 59.0984 83.9421C59.2101 84.6966 59.0425 85.479 59.2381 86.2056C60.0764 86.0938 60.1323 86.0658 60.0205 85.3952C59.8249 84.1936 59.5734 82.9921 59.3498 81.7905C59.294 81.567 59.1542 81.3434 59.3219 81.0919C61.1941 82.1538 62.2001 82.2097 63.4016 81.3155C59.7131 77.096 58.4836 72.0382 58.2042 66.6731C57.813 68.3218 57.7291 69.9145 57.7571 71.5073Z" fill="white"/>
<path d="M9.13561 82.014C8.88412 83.2156 8.63263 84.3892 8.40908 85.5908C8.32525 86.0099 8.52085 86.1776 8.88412 86.2055C9.27533 86.2055 9.24738 85.9261 9.24738 85.6746C9.24738 83.8303 9.5827 82.042 9.89008 80.2256C9.94597 79.9741 9.91803 79.6947 9.94597 79.3035C9.49887 79.6109 9.1915 79.8344 8.88412 80.058C8.57674 80.2536 8.24142 80.5051 7.65461 80.5051C8.57674 79.08 9.35916 77.7387 9.83419 76.2577C10.3092 74.7767 10.5887 73.2398 10.6446 71.6749C10.7004 70.138 10.5607 68.6012 10.1975 67.0643C10.0298 72.3456 8.60468 77.2357 5.08381 81.3993C5.75445 81.9302 6.48098 82.0978 7.23545 81.9581C7.93404 81.8184 8.57674 81.4831 9.33121 81.2037C9.24738 81.511 9.19149 81.7625 9.13561 82.014Z" fill="white"/>
<path d="M9.49873 63.8787C9.61051 63.4037 9.72228 62.9007 10.2811 62.7051C10.0017 61.3918 9.55462 60.4976 8.85603 59.8549C8.32511 59.3519 8.15745 59.3799 7.7383 59.9946C7.26326 60.7211 7.03971 61.5036 6.89999 62.3419C6.87205 62.5095 6.78822 62.6772 6.73233 62.8448C6.03375 61.5315 5.83814 60.1902 6.08963 58.793C6.22935 58.0665 6.89999 57.843 7.54269 58.2621C7.82213 58.4298 8.04567 58.6813 8.43688 59.0166C8.35305 58.0945 8.29717 57.34 8.24128 56.5855C8.21333 56.3061 8.01773 56.2502 7.76624 56.1943C6.98382 56.0825 6.28524 56.4737 5.89403 57.2282C5.55871 57.8989 5.50282 58.6254 5.58665 59.3519C5.69842 60.3299 5.83814 61.28 5.97786 62.2301C6.22935 63.9905 6.53673 65.751 6.78822 67.4835C7.03971 69.1321 7.34709 70.7808 8.01773 72.3177C8.15745 72.653 8.26922 73.0442 8.68837 73.3795C8.82809 72.8486 8.93986 72.4015 9.05164 71.9544C9.2193 71.3676 9.16341 70.8087 8.88398 70.2778C8.01773 68.6291 7.65447 66.8408 7.37503 65.0244C7.20737 63.9905 7.12354 62.9846 7.37503 61.9507C7.4868 61.4477 7.59858 60.8329 8.24128 60.7211C8.82809 60.6373 9.13547 61.1403 9.47079 61.5036C9.77817 61.8389 9.80611 62.1742 9.63845 62.6492C9.27519 63.5434 8.96781 64.4935 8.71632 65.4156C8.40894 66.5334 8.66043 67.5114 9.44285 68.4615C9.63845 68.1262 9.44285 67.9026 9.33107 67.707C8.91192 67.1202 8.85603 66.4775 9.05164 65.8068C9.24724 65.1921 9.33107 64.5214 9.49873 63.8787Z" fill="white"/>
<path d="M59.8527 73.4353C60.0484 73.0721 60.1881 72.8485 60.2998 72.597C60.9146 71.2558 61.2779 69.8306 61.5014 68.3496C61.8088 66.198 62.1441 64.0743 62.4794 61.9226C62.6191 61.0843 62.7309 60.2181 62.8427 59.3798C62.9265 58.6253 62.8986 57.8708 62.5353 57.1723C62.1721 56.4178 61.5014 56.0545 60.7469 56.1663C60.4954 56.1942 60.2719 56.2781 60.244 56.5296C60.1601 57.312 60.1042 58.0944 60.0484 58.9886C60.4116 58.6812 60.6631 58.4577 60.9425 58.29C61.6411 57.8429 62.2559 58.1223 62.4235 58.9047C62.4515 59.0165 62.4794 59.1283 62.4515 59.2401C62.3397 60.2181 62.2279 61.2241 62.1162 62.2021C62.0882 62.3977 61.9485 62.5933 61.7808 62.9286C61.6691 62.4815 61.5852 62.23 61.5294 61.9785C61.3617 61.252 61.1661 60.5255 60.719 59.8828C60.3837 59.4077 60.1042 59.3798 59.713 59.7989C58.9027 60.6093 58.3717 61.5873 57.9805 62.7051C58.6232 62.9565 58.6512 62.9286 58.8188 63.4875C59.0424 64.2699 59.21 65.0523 59.4336 65.8347C59.6013 66.4774 59.6013 67.0922 59.21 67.679C59.0703 67.8746 58.9306 68.0981 59.1542 68.4335C59.741 67.5113 60.1042 66.6171 59.7689 65.5832C59.4615 64.6332 59.1821 63.6551 58.8188 62.733C58.5953 62.2021 58.7071 61.8388 59.0424 61.4755C59.1821 61.3358 59.2939 61.1682 59.4615 61.0564C60.0483 60.5534 60.5793 60.6372 60.8867 61.3638C61.0823 61.8668 61.2499 62.4256 61.2499 62.9845C61.2779 65.4156 60.8587 67.7908 59.741 69.9983C59.1262 71.144 59.4057 72.1779 59.8527 73.4353Z" fill="white"/>
<path d="M45.3221 11.848C47.4458 11.4568 49.821 11.7362 50.827 13.8599C50.827 13.8878 50.8549 13.9158 50.8549 13.9437C51.6932 15.8159 51.5535 18.0514 51.6094 20.0633C51.6373 21.4326 51.6653 22.8018 51.9726 24.1431C54.0125 21.4326 54.767 17.6323 54.9626 15.285C55.4935 19.0853 54.5434 22.4385 52.6153 25.5682C56.9466 22.4385 59.2379 15.1453 54.6552 11.3171C54.767 12.2392 54.4876 13.1893 53.8169 13.8599C53.5654 9.50073 48.6753 6.56667 45.2662 9.4169C46.9708 9.10952 49.9607 8.7742 50.9387 11.0376C48.3959 9.47278 43.897 10.3111 42.7234 12.6304C42.7513 12.5745 43.1705 12.4627 43.2543 12.4348C43.897 12.1833 44.5956 11.9877 45.3221 11.848Z" fill="#FF3300"/>
<path d="M57.5334 34.2866C55.0465 35.0131 50.324 31.9114 52.1404 29.2288C53.1463 27.7478 55.1583 27.2169 56.6393 28.0831C55.6612 25.6241 59.8528 25.4844 59.1262 28.0272C60.9984 21.5444 52.3639 25.1211 51.2462 28.6979C49.4298 34.5381 57.729 37.7236 61.6132 33.2247C61.4455 33.3924 60.8308 33.7277 60.3837 33.8395C60.9146 32.3026 62.1162 30.9892 62.5633 29.3685C64.156 25.5682 64.0163 19.4765 59.4336 17.9676C64.2958 21.6841 63.1221 31.9673 57.5334 34.2866Z" fill="#FF3300"/>
<path d="M66.7547 20.6782C66.7268 16.7382 63.4854 13.5806 59.685 15.8161C61.3617 15.8161 63.5412 15.5366 64.4354 17.2691C62.4235 16.1514 58.9865 16.4029 57.6731 18.1074C58.2599 18.0795 58.7909 17.6324 59.4056 17.9118H59.3777C59.4056 17.9118 59.4056 17.9118 59.4336 17.9398L59.4056 17.9118C60.188 17.4647 61.0263 17.6324 61.8088 17.7721C66.5871 18.5545 64.1001 24.227 64.6031 27.4405C65.637 26.1272 66.0003 22.3828 67.2018 21.9357C67.4533 24.0873 66.3076 25.736 65.7488 27.72C67.9563 25.6801 69.4653 21.7401 67.3974 19.3649C67.1739 19.7561 67.2577 20.315 66.7547 20.6782Z" fill="#FF3300"/>
<path d="M66.2519 29.5362C65.1621 28.8097 63.5135 29.7318 62.8428 30.8216C64.0723 30.2907 66.5034 30.4025 65.6651 32.5262C67.0064 32.135 67.3138 30.2348 66.2519 29.5362Z" fill="#FF3300"/>
<path d="M15.8699 25.5683C13.9697 22.4107 12.9917 19.0854 13.5226 15.2572C13.7182 17.6044 14.4727 21.4047 16.5126 24.1152C16.8479 22.8019 16.8479 21.4047 16.8758 20.0355C16.9317 18.0515 16.8199 15.816 17.6303 13.9438C17.6303 13.9159 17.6582 13.8879 17.6582 13.86C18.6363 11.7363 21.0114 11.4569 23.1631 11.8481C23.8896 11.9878 24.5882 12.1834 25.203 12.4349C25.2868 12.4628 25.7059 12.5746 25.7339 12.6305C24.5603 10.2832 20.0614 9.47287 17.5185 11.0377C18.4965 8.77429 21.4865 9.10961 23.191 9.41699C19.8099 6.56675 14.9198 9.47287 14.6683 13.86C13.9976 13.1894 13.7461 12.2393 13.83 11.3171C9.2752 15.1454 11.5386 22.4107 15.8699 25.5683Z" fill="#FF3300"/>
<path d="M5.89407 29.3685C6.36911 30.9892 7.57068 32.3026 8.07366 33.8395C7.62656 33.7277 7.03975 33.3924 6.84415 33.2247C10.7283 37.7236 19.0275 34.5381 17.2112 28.6979C16.0934 25.0932 7.48685 21.5164 9.33111 28.0272C8.60458 25.4844 12.7961 25.652 11.8181 28.0831C13.2991 27.1889 15.339 27.7478 16.317 29.2288C18.1333 31.9114 13.4109 35.0131 10.9239 34.2866C5.3352 31.9393 4.18952 21.6841 8.99579 17.9676C4.41307 19.5045 4.30129 25.5682 5.89407 29.3685Z" fill="#FF3300"/>
<path d="M1.22745 21.9635C2.42902 22.4106 2.79229 26.155 3.82619 27.4684C4.32918 24.2549 1.84221 18.5823 6.62054 17.7999C7.40296 17.6602 8.24126 17.4926 9.02367 17.9396L8.99573 17.9676C9.02367 17.9676 9.02367 17.9676 9.05162 17.9396H9.02367C9.63843 17.6602 10.1694 18.1073 10.7562 18.1353C9.44283 16.4028 6.00578 16.1792 3.99385 17.297C4.88804 15.5645 7.06763 15.8439 8.74424 15.8439C4.94393 13.6084 1.70249 16.766 1.67455 20.706C1.17157 20.3428 1.2554 19.7839 0.975962 19.4207C-1.09185 21.7958 0.445036 25.7359 2.62463 27.7757C2.12164 25.7638 0.975962 24.1152 1.22745 21.9635Z" fill="#FF3300"/>
<path d="M2.23347 29.5363C1.17162 30.2069 1.479 32.135 2.82029 32.5262C1.98198 30.4025 4.44101 30.2907 5.64257 30.8217C4.97193 29.7319 3.32327 28.8377 2.23347 29.5363Z" fill="#FF3300"/>
<path d="M7.26333 39.009L7.54276 40.5459C11.0636 38.8134 19.782 35.4043 33.9773 35.4043C44.6796 35.4043 53.4818 38.0031 58.316 39.7915C59.0984 40.0429 59.8529 40.3224 60.6353 40.6298L60.9986 38.7296C44.2325 31.7996 23.8058 31.4364 7.26333 39.009Z" fill="#FF3300"/>
<path d="M58.9867 49.5438C54.7672 47.8672 45.3782 44.7375 33.9773 44.7375C21.2351 44.7375 12.9918 47.6157 9.21939 49.3202L9.49883 51.0527C24.8677 44.7934 43.3104 44.6816 58.7352 50.9409L58.9867 49.5438Z" fill="#FF3300"/>
<path d="M34.0052 42.6976C45.5179 42.6976 54.8789 45.7155 59.3778 47.4759L60.2441 42.7814C56.9188 41.3563 46.7195 37.4442 33.9772 37.4442C19.5025 37.4442 10.8121 41.1607 7.93395 42.6417L8.8002 47.2524C12.9358 45.436 21.263 42.6976 34.0052 42.6976Z" fill="#FF3300"/>
<path d="M31.3225 10.0317L31.6858 11.0377C31.6858 11.0377 34.2287 11.0377 34.3963 11.0377C35.1787 11.0377 35.9891 11.0377 36.7715 11.0377C36.7715 11.0377 36.9392 10.6185 37.1348 10.0317C36.3244 9.80819 35.3464 9.69641 34.2287 9.69641C33.1389 9.69641 32.1329 9.83613 31.3225 10.0317Z" fill="#FF3300"/>
<path d="M37.6937 8.60656C36.7995 8.29918 35.6258 8.10358 34.2566 8.10358C32.8874 8.10358 31.7138 8.29918 30.8196 8.60656L31.1828 9.55663C32.077 9.30514 33.1389 9.19337 34.2566 9.19337C35.4023 9.19337 36.4641 9.33309 37.3304 9.55663C37.4422 9.24926 37.5539 8.91394 37.6937 8.60656Z" fill="#FF3300"/>
<path d="M27.3825 5.16954C27.3825 5.16954 28.0811 5.81224 28.3326 6.11961C29.618 5.5328 31.5181 5.50486 31.5181 5.50486L32.0211 6.6226C32.0211 6.6226 30.8475 6.73437 30.2886 7.20941L30.6239 8.13154C31.602 7.79622 32.8594 7.60062 34.2286 7.60062C35.5979 7.60062 36.8553 7.79622 37.8333 8.13154C38.029 7.60062 38.1687 7.20941 38.1687 7.20941C37.5819 6.73437 36.4362 6.6226 36.4362 6.6226L36.9392 5.50486C36.9392 5.50486 38.8393 5.50486 40.1247 6.11961C40.3762 5.81224 41.0748 5.16954 41.0748 5.16954C41.0748 5.16954 40.3483 4.41506 40.1247 4.02386C39.1746 4.2474 37.526 4.27535 37.526 4.27535L40.3483 0C40.3483 0 39.0908 0 37.5539 0C38.2804 1.45306 37.1068 4.27535 37.1068 4.27535H34.8155C34.8155 4.27535 34.6757 1.81632 35.7655 0C35.3464 0 34.7596 0 34.2286 0C34.2286 0 34.2286 0 34.2007 0C34.2007 0 34.2007 0 34.1728 0C33.6418 0 33.055 0 32.6359 0C33.7257 1.81632 33.5859 4.27535 33.5859 4.27535H31.2946C31.2946 4.27535 30.121 1.481 30.8475 0C29.3106 0 28.0531 0 28.0531 0L30.8754 4.27535C30.8754 4.27535 29.2268 4.2474 28.2767 4.02386C28.137 4.41506 27.3825 5.16954 27.3825 5.16954ZM34.7875 5.50486C35.3464 5.50486 35.9891 5.50486 36.4921 5.50486C36.3523 5.92401 36.1009 6.56671 36.1009 6.56671L34.6757 6.48288C34.6757 6.48288 34.7596 5.86812 34.7875 5.50486ZM33.6977 5.50486C33.7257 5.84018 33.7815 6.45494 33.7815 6.45494L32.3564 6.53877C32.3564 6.53877 32.1049 5.92401 31.9652 5.47692C32.4962 5.50486 33.1388 5.50486 33.6977 5.50486Z" fill="#FF3300"/>
<path d="M27.3544 32.2468C33.0269 30.2908 31.2106 23.4167 31.49 18.7222C32.4122 19.2531 33.0549 19.5325 34.0608 19.7002C34.005 20.9297 33.2784 21.768 32.6637 22.6901C33.0269 23.3887 33.6137 23.752 34.2564 23.724C34.8991 23.752 35.486 23.3887 35.8492 22.6901C35.2345 21.7959 34.48 20.9297 34.452 19.7002C35.458 19.5325 36.1007 19.2531 37.0228 18.7222C37.3023 23.4167 35.486 30.2908 41.1585 32.2468C44.7632 33.5881 49.3738 32.0791 50.7431 28.3347C50.296 28.6141 49.9607 28.8097 49.5136 29.0612C51.6093 23.4167 50.8828 15.6484 44.875 12.7982C47.7811 16.347 48.787 20.9018 49.1224 25.4006C48.6753 22.746 45.853 19.7561 43.4778 22.3828C42.1086 23.9196 44.9588 26.5743 45.6015 24.0873C46.3839 22.774 47.6134 23.9755 47.7811 25.0374C49.4297 32.0512 38.2524 33.2528 38.2524 26.1551C38.2524 21.3488 38.3921 17.2412 38.2244 12.4628H36.967C36.967 13.8879 37.0787 16.0116 35.486 17.2691C36.0448 15.6484 36.5478 14.1394 36.2404 12.5187C35.9331 12.5187 35.7095 12.5187 35.486 12.5187C35.7095 13.9159 34.8712 15.5925 34.2564 16.2352C33.6417 15.5925 32.7754 13.9159 33.0269 12.5187C32.8034 12.5187 32.5519 12.5187 32.2725 12.5187C31.993 14.1674 32.4681 15.6484 33.0269 17.2691C31.4621 16.0116 31.5459 13.8879 31.5459 12.4628H30.2885C30.1208 17.2412 30.2605 21.3488 30.2605 26.1551C30.2605 33.2528 19.0832 32.0512 20.7318 25.0374C20.8995 23.9755 22.1569 22.774 22.9114 24.0873C23.5262 26.5743 26.3764 23.9196 25.0351 22.3828C22.6599 19.7561 19.8376 22.746 19.3905 25.4006C19.7538 20.9297 20.7318 16.3749 23.6379 12.7982C17.6301 15.6763 16.9036 23.4167 18.9993 29.0612C18.5522 28.7818 18.2169 28.5862 17.7698 28.3347C19.167 32.0791 23.7497 33.5881 27.3544 32.2468Z" fill="#FF3300"/>
<path d="M36.1846 28.5023C35.1507 27.6082 34.6477 26.4066 34.2844 25.0653V25.0374C33.9491 26.4066 33.4182 27.6082 32.3843 28.4744C33.2784 29.5362 33.8094 30.3746 34.2844 31.6599V31.6879C34.7595 30.4025 35.2904 29.5642 36.1846 28.5023Z" fill="#FF3300"/>
<path d="M15.0315 54.1545C20.6761 53.4838 26.1809 54.6295 31.7138 55.4399C32.5241 55.5237 33.3065 55.5517 34.1169 55.5237C34.8993 55.5237 35.7097 55.4958 36.52 55.4399C42.0808 54.6295 47.5577 53.4838 53.2023 54.1545C53.2581 53.1206 52.9228 51.9749 51.8051 51.7793C49.5137 51.1645 47.1944 50.6616 44.8472 50.3542C41.6057 49.9071 37.9172 49.5718 34.0889 49.5159C30.2607 49.5718 26.5722 49.9071 23.3307 50.3542C20.9835 50.6616 18.6642 51.1645 16.3728 51.7793C15.283 51.9749 14.9756 53.0926 15.0315 54.1545Z" fill="white"/>
</svg>
